<mxfile host="65bd71144e">
    <diagram id="fpolGPrm8R85d8_oHjAc" name="Page-1">
        <mxGraphModel dx="530" dy="552" grid="1" gridSize="4" guides="1" tooltips="1" connect="1" arrows="1" fold="1" page="1" pageScale="1" pageWidth="850" pageHeight="1100" math="0" shadow="0">
            <root>
                <mxCell id="0"/>
                <mxCell id="1" parent="0"/>
                <mxCell id="4" value="" style="endArrow=none;html=1;strokeWidth=10;" parent="1" edge="1">
                    <mxGeometry width="50" height="50" relative="1" as="geometry">
                        <mxPoint x="256" y="400" as="sourcePoint"/>
                        <mxPoint x="256" y="384" as="targetPoint"/>
                    </mxGeometry>
                </mxCell>
                <mxCell id="5" value="" style="endArrow=none;html=1;strokeWidth=10;" parent="1" edge="1">
                    <mxGeometry width="50" height="50" relative="1" as="geometry">
                        <mxPoint x="256" y="400" as="sourcePoint"/>
                        <mxPoint x="256" y="400" as="targetPoint"/>
                        <Array as="points">
                            <mxPoint x="288" y="400"/>
                            <mxPoint x="256" y="448"/>
                            <mxPoint x="224" y="400"/>
                        </Array>
                    </mxGeometry>
                </mxCell>
            </root>
        </mxGraphModel>
    </diagram>
</mxfile>